PathFileType	4	(X/Y/Z)	A12_1_OpenSim.trc																																																																																																																						
DataRate	CameraRate	NumFrames	NumMarkers	Units	OrigDataRate	OrigDataStartFrame	OrigNumFrames																																																																																																																		
100	100	10	40	mm	100	2251	3000																																																																																																																		
Frame#	Time	R.ASIS			R.PSIS			S2			L.PSIS			L.ASIS			R.TH1			R.TH2			R.TH3			R.MKnee			R.Knee			R.SH1			R.SH2			R.SH3			R.SH4			R.Ankle			R.MAnkle			R.Heel			R.MT5			R.MT1			L.TH1			L.TH2			L.TH3			L.TH4			L.MKnee			L.Knee			L.SH1			L.SH2			L.SH3			L.Ankle			L.MAnkle			L.Heel			L.MT5			L.MT1			R.Acr			L.Acr			C7			T10			Clav			Sternum			R.Back		
		X1	Y1	Z1	X2	Y2	Z2	X3	Y3	Z3	X4	Y4	Z4	X5	Y5	Z5	X6	Y6	Z6	X7	Y7	Z7	X8	Y8	Z8	X9	Y9	Z9	X10	Y10	Z10	X11	Y11	Z11	X12	Y12	Z12	X13	Y13	Z13	X14	Y14	Z14	X15	Y15	Z15	X16	Y16	Z16	X17	Y17	Z17	X18	Y18	Z18	X19	Y19	Z19	X20	Y20	Z20	X21	Y21	Z21	X22	Y22	Z22	X23	Y23	Z23	X24	Y24	Z24	X25	Y25	Z25	X26	Y26	Z26	X27	Y27	Z27	X28	Y28	Z28	X29	Y29	Z29	X30	Y30	Z30	X31	Y31	Z31	X32	Y32	Z32	X33	Y33	Z33	X34	Y34	Z34	X35	Y35	Z35	X36	Y36	Z36	X37	Y37	Z37	X38	Y38	Z38	X39	Y39	Z39	X40	Y40	Z40
2251	22.5	972.484	1047.354	-421.0568	780.1948	1040.5122	-498.9632	771.1668	1035.9412	-543.7455	773.2989	1043.6899	-593.7859	942.6863	1043.7197	-710.3628	1037.5676	733.7531	-401.2771	962.4035	701.6268	-391.5947	1003.1945	600.8957	-408.4293	1065.709	501.2307	-535.1014	1069.4512	504.3769	-419.0287	1124.7477	348.6827	-418.183	1158.2593	243.2783	-438.1725	1046.0946	323.5454	-410.9442	1084.1509	217.1779	-421.9174	1151.36	70.9843	-433.89	1186.1034	101.4247	-525.1374	1102.8784	29.3526	-497.196	1271.7728	52.3334	-405.8499	1319.2432	69.6693	-491.7938	922.0757	736.3519	-722.2392	906.0735	629.2328	-711.6291	839.1868	743.8781	-734.1158	826.6908	636.3713	-713.8945	861.001	480.0231	-591.9239	847.2706	488.8237	-702.3762	781.0476	366.7437	-714.6985	712.7806	412.1648	-712.7355	654.524	319.2969	-704.718	589.9998	114.1612	-699.3602	627.9487	118.6543	-603.0162	519.4731	100.2164	-639.5247	673.1628	33.7557	-719.0706	717.8979	45.054	-617.1142	876.8404	1438.2183	-400.2058	856.948	1424.85	-727.5287	810.698	1470.7035	-565.7816	792.9648	1144.2615	-551.1405	953.6245	1384.7535	-569.978	991.6956	1243.7802	-560.9098	738.996	1369.1039	-479.3805
2252	22.51	973.5888	1047.9596	-419.1375	781.2225	1040.3048	-497.0398	772.0061	1035.4653	-541.8022	774.0618	1042.8983	-591.8654	943.5074	1042.8009	-708.4333	1039.1935	734.2404	-399.1283	963.9022	702.2706	-389.8994	1004.5055	601.4956	-407.081	1066.334	501.9327	-534.2324	1070.937	504.8075	-418.1015	1124.0531	347.9143	-418.207	1155.1494	241.8655	-438.6888	1045.1008	324.2883	-409.5885	1080.9374	217.223	-421.1534	1143.0343	70.6777	-434.2748	1178.2722	99.2703	-525.8218	1091.9667	30.8371	-497.153	1262.9001	47.6761	-407.4658	1310.9652	61.3154	-494.0321	925.5664	735.4055	-720.9843	911.0845	627.9614	-711.5736	842.5703	741.9328	-732.2913	831.6201	634.0894	-713.2073	869.2748	477.1346	-593.2578	854.2183	487.1555	-703.5984	783.6204	367.5971	-716.4433	716.9874	415.3841	-712.4768	655.7379	324.4556	-704.5883	584.5751	120.1453	-701.1699	623.1134	123.853	-605.2942	513.9488	111.1391	-640.9641	662.7768	34.6476	-719.9445	707.4448	45.4487	-617.5951	877.7582	1438.0278	-398.6345	856.9415	1424.0696	-725.8213	811.0446	1470.1711	-564.1055	793.6875	1143.6892	-549.4595	954.1277	1384.469	-568.5265	992.5004	1243.6112	-559.3017	739.8422	1368.5663	-477.285
2253	22.52	974.5049	1048.9193	-417.2807	782.0952	1040.3603	-495.2223	772.6887	1035.2423	-539.965	774.6821	1042.3392	-590.0582	944.264	1042.1451	-706.4557	1040.6758	734.9587	-396.8535	965.2771	703.1504	-387.9372	1005.682	602.3325	-405.4467	1066.8097	502.8204	-533.1621	1072.2246	505.4154	-417.0062	1122.9383	347.3515	-418.0088	1151.5464	240.6956	-438.9803	1043.7401	325.2761	-407.8868	1077.2827	217.5341	-420.0737	1134.1742	70.6069	-434.4767	1169.877	97.5916	-526.1818	1080.917	32.1911	-496.9663	1253.3835	43.9648	-408.4892	1302.0857	54.208	-495.5343	929.6034	734.6948	-719.8737	916.9088	626.932	-711.7246	846.5034	740.0107	-730.6454	837.3562	631.8323	-712.793	878.8865	474.3372	-594.8516	862.3535	485.6304	-705.0671	787.7386	368.6651	-718.4192	722.8421	418.7682	-712.5679	658.6528	329.9036	-704.7635	580.6483	127.11	-703.2297	619.585	129.7647	-607.7757	510.1375	123.5269	-642.7826	652.9941	36.3303	-720.8803	697.5442	46.3026	-618.176	878.6154	1438.1232	-397.0722	856.8209	1423.5781	-724.0899	811.3165	1469.8719	-562.4015	794.2565	1143.3823	-547.8398	954.5342	1384.431	-567.0673	993.2145	1243.6931	-557.686	740.646	1368.2898	-475.162
2254	22.53	975.1929	1050.1589	-415.4963	782.7766	1040.632	-493.5231	773.1739	1035.2318	-538.2463	775.1104	1041.9857	-588.3768	944.8959	1041.7267	-704.4571	1041.9491	735.8502	-394.5635	966.4511	704.218	-385.8307	1006.6163	603.356	-403.6648	1067.0569	503.8633	-531.9851	1073.1533	506.1362	-415.8534	1121.2445	346.9308	-417.6947	1147.314	239.7108	-439.1518	1041.8418	326.4478	-406.014	1073.0302	218.0511	-418.8436	1124.7172	70.735	-434.5725	1160.8296	96.3591	-526.3521	1069.7233	33.315	-496.7068	1243.2317	41.241	-409.0225	1292.553	48.5633	-496.4095	934.1083	734.2236	-718.8685	923.4444	626.1674	-711.9819	850.9252	738.1271	-729.1958	843.8053	629.6368	-712.6165	889.6059	471.7572	-596.5436	871.567	484.2873	-706.6454	793.4013	369.9081	-720.4762	730.3131	422.2493	-713.0527	663.2553	335.5607	-705.2888	578.3325	135.1378	-705.4687	617.3773	136.4482	-610.3518	508.158	137.3276	-644.9724	644.0024	39.1168	-721.859	688.3515	47.8107	-618.8517	879.4099	1438.4823	-395.5456	856.5861	1423.366	-722.3597	811.507	1469.8014	-560.693	794.6533	1143.3254	-546.2818	954.8388	1384.6096	-565.6249	993.8015	1243.9785	-556.103	741.3937	1368.2705	-473.044
2255	22.54	975.6339	1051.5991	-413.7899	783.2375	1041.0789	-491.9509	773.4377	1035.3954	-536.6558	775.3106	1041.8096	-586.8295	945.3458	1041.5151	-702.473	1042.9161	736.8378	-392.3714	967.3098	705.4159	-383.7278	1007.1663	604.501	-401.8933	1066.9005	505.0109	-530.8316	1073.5682	506.9068	-414.7592	1118.8403	346.5972	-417.3679	1142.3612	238.8605	-439.2897	1039.2634	327.7387	-404.1806	1068.0593	218.7159	-417.6465	1114.6547	71.0171	-434.628	1151.0928	95.5148	-526.4536	1058.3778	34.1608	-496.4311	1232.5067	39.4182	-409.2104	1282.373	44.4147	-496.8238	938.9919	734.004	-717.9066	930.5696	625.6951	-712.2223	855.763	736.314	-727.926	850.8583	627.5548	-712.6018	901.1262	469.5495	-598.129	881.7253	483.1819	-708.1779	800.5304	371.3048	-722.4365	739.2902	425.7904	-713.9393	669.4462	341.3745	-706.1703	577.6857	144.2857	-707.7641	616.4602	143.9556	-612.8691	508.0328	152.4224	-647.4528	636.0299	43.3089	-722.848	680.047	50.1605	-619.6054	880.1402	1439.076	-394.0827	856.2456	1423.4137	-720.66	811.6162	1469.957	-559.006	794.8697	1143.4982	-544.7842	955.0422	1384.9734	-564.2242	994.2261	1244.4202	-554.5951	742.0689	1368.5067	-470.9625
2256	22.55	975.8312	1053.1672	-412.1694	783.4562	1041.6787	-490.5101	773.4797	1035.709	-535.1989	775.265	1041.793	-585.4188	945.5639	1041.4861	-700.5469	1043.4757	737.8398	-390.3829	967.7356	706.6878	-381.7682	1007.1938	605.6968	-400.2762	1066.1434	506.1997	-529.8311	1073.3374	507.6682	-413.8242	1115.635	346.3052	-417.1048	1136.6515	238.1015	-439.4395	1035.9091	329.0748	-402.5879	1062.3018	219.47	-416.6425	1104.0337	71.4057	-434.6889	1140.7001	94.9836	-526.5728	1046.8844	34.7337	-496.177	1221.3094	38.327	-409.1919	1271.6133	41.622	-496.9426	944.1626	734.0676	-716.9185	938.1548	625.5582	-712.3223	860.9379	734.6287	-726.7946	858.3989	625.6606	-712.6483	913.1022	467.8848	-599.3982	892.6741	482.3941	-709.5146	808.9779	372.8617	-724.1195	749.5879	429.3922	-715.191	677.0536	347.3225	-707.373	578.7086	154.5493	-709.9562	616.7797	152.3019	-615.1532	509.6991	168.5919	-650.068	629.3362	49.1182	-723.8035	672.8369	53.4946	-620.4136	880.8043	1439.8745	-392.7118	855.8128	1423.6981	-719.0201	811.6498	1470.3402	-557.365	794.9044	1143.8817	-543.3437	955.1492	1385.4967	-562.8863	994.4571	1244.9814	-553.2017	742.6535	1369.001	-468.9453
2257	22.56	975.8079	1054.8041	-410.6479	783.4279	1042.428	-489.1983	773.3228	1036.1688	-533.8739	774.9769	1041.9364	-584.1399	945.5123	1041.6306	-698.7263	1043.5475	738.7828	-388.6855	967.6364	707.9844	-380.0625	1006.5936	606.8781	-398.9203	1064.6427	507.3579	-529.0767	1072.3577	508.3673	-413.1177	1111.5886	346.0176	-416.9522	1130.2004	237.3989	-439.6169	1031.738	330.3823	-401.3786	1055.7502	220.259	-415.9339	1092.9392	71.8572	-434.7802	1129.7451	94.6868	-526.7612	1035.2576	35.0797	-495.9654	1209.7537	37.7705	-409.0757	1260.3794	39.9296	-496.8999	949.5303	734.4701	-715.8453	946.0707	625.8205	-712.1786	866.3672	733.1559	-725.7493	866.3092	624.0528	-712.653	925.2065	466.9242	-600.1765	904.2428	482.0266	-710.5305	818.5389	374.6198	-725.3696	760.9614	433.0898	-716.7177	685.851	353.4053	-708.8166	581.3379	165.816	-711.8803	618.2808	161.4265	-617.0476	513.0264	185.4841	-652.6091	624.1849	56.5854	-724.6769	666.9589	57.874	-621.2554	881.3998	1440.8533	-391.4569	855.3016	1424.1993	-717.4659	811.6155	1470.9546	-555.7905	794.7609	1144.4653	-541.9534	955.1657	1386.1644	-561.6263	994.4779	1245.6445	-551.9501	743.1293	1369.7587	-467.0152
2258	22.57	975.5993	1056.4664	-409.2405	783.1689	1043.3368	-488.0033	773.0088	1036.7904	-532.6721	774.4728	1042.2587	-582.9796	945.1713	1041.9603	-697.0523	1043.0821	739.6115	-387.3341	966.9573	709.2696	-378.6808	1005.3058	607.994	-397.885	1062.3376	508.4149	-528.6073	1070.5632	508.9622	-412.6718	1106.7151	345.7091	-416.9355	1123.0636	236.7288	-439.8326	1026.7603	331.6069	-400.6075	1048.453	221.0414	-415.5514	1081.4786	72.3345	-434.9117	1118.3557	94.5536	-527.0422	1023.5184	35.2651	-495.8068	1197.9469	37.5663	-408.9356	1248.7871	39.0427	-496.7901	955.0062	735.2872	-714.6491	954.1919	626.5608	-711.7227	871.9638	731.9992	-724.7401	874.4712	622.8457	-712.5276	937.1809	466.7891	-600.3527	916.2481	482.1923	-711.1405	828.9683	376.6514	-726.0818	773.1238	436.9424	-718.3748	695.5804	359.6316	-710.3733	585.4414	177.8346	-713.4006	620.9255	171.1678	-618.4488	517.8295	202.6064	-654.8495	620.8104	65.5339	-725.4247	662.6848	63.259	-622.121	881.9227	1441.999	-390.3332	854.7233	1424.9045	-716.0172	811.5201	1471.8044	-554.2964	794.4484	1145.2492	-540.6021	955.0966	1386.9744	-560.4544	994.2939	1246.4103	-550.8491	743.4811	1370.7842	-465.1887
2259	22.58	975.2451	1058.1289	-407.9575	782.7098	1044.4243	-486.9057	772.5887	1037.6023	-531.5805	773.7966	1042.7925	-581.9181	944.545	1042.5079	-695.5511	1042.0604	740.2931	-386.3447	965.6818	710.5235	-377.6472	1003.3132	609.0158	-397.1819	1059.2304	509.316	-528.4137	1067.9336	509.43	-412.4846	1101.0758	345.3719	-417.0666	1115.3177	236.0829	-440.1052	1021.0289	332.7249	-400.2422	1040.5016	221.7944	-415.4615	1069.7678	72.8053	-435.0818	1106.6705	94.5249	-527.4131	1011.691	35.3591	-495.7036	1185.9802	37.5664	-408.8151	1236.9423	38.6869	-496.6715	960.4982	736.6002	-713.3177	962.3955	627.8623	-710.9298	877.6339	731.2649	-723.7278	882.7665	622.1526	-712.2123	948.8583	467.5396	-599.8964	928.4973	482.995	-711.3075	839.9979	379.0463	-726.2174	785.7647	441.0158	-719.9769	705.9753	365.9971	-711.8775	590.8212	190.2204	-714.4304	624.7002	181.2592	-619.3195	523.8787	219.3496	-656.5773	619.3944	75.5798	-726.0209	660.3081	69.5052	-623.0165	882.3655	1443.3096	-389.3445	854.0859	1425.8093	-714.684	811.3682	1472.8915	-552.8899	793.9824	1146.2446	-539.279	954.9451	1387.9359	-559.3758	993.9266	1247.2937	-549.8914	743.6989	1372.0769	-463.4745
2260	22.59	974.7792	1059.783	-406.7998	782.0823	1045.7123	-485.8845	772.1119	1038.6362	-530.5873	772.9943	1043.5772	-580.9355	943.6609	1043.321	-694.2294	1040.4879	740.82	-385.6999	963.8278	711.7428	-376.9424	1000.6347	609.9384	-396.7799	1055.352	510.0331	-528.4556	1064.4912	509.7689	-412.5267	1094.7596	345.0171	-417.3444	1107.0491	235.4696	-440.4551	1014.6305	333.737	-400.1874	1032.0127	222.5128	-415.5871	1057.9113	73.2447	-435.2808	1094.8174	94.5526	-527.8499	999.7999	35.4173	-495.6503	1173.9215	37.6646	-408.7343	1224.931	38.639	-496.5738	965.9073	738.4799	-711.8641	970.5608	629.7994	-709.825	883.2749	731.0437	-722.6869	891.0769	622.0664	-711.6827	960.1551	469.1725	-598.858	940.795	484.5098	-711.042	851.3572	381.8897	-725.808	798.5729	445.3609	-721.3251	716.7793	372.4663	-713.1505	597.24	202.4996	-714.9377	629.6089	191.3469	-619.6783	530.9227	235.0464	-657.6232	620.0587	86.1955	-726.4688	660.1106	76.3712	-623.9589	882.7165	1444.7943	-388.4825	853.3928	1426.9143	-713.4671	811.1622	1474.2123	-551.5732	793.3853	1147.4695	-537.9772	954.7109	1389.0636	-558.3901	993.4033	1248.3162	-549.0593	743.7802	1373.6285	-461.8756
